<svg xmlns="http://www.w3.org/2000/svg" xmlns:xlink="http://www.w3.org/1999/xlink" width="1000" zoomAndPan="magnify" viewBox="0 0 750 187.499995" height="250" preserveAspectRatio="xMidYMid meet" version="1.0"><defs><g/></defs><g fill="#1e7fd0" fill-opacity="1"><g transform="translate(27.1353, 132.239853)"><g><path d="M 13.984375 -62.0625 C 11.828125 -62.0625 9.757812 -62.414062 7.78125 -63.125 C 5.800781 -63.832031 4.1875 -64.890625 2.9375 -66.296875 C 1.6875 -67.703125 1.0625 -69.46875 1.0625 -71.59375 C 1.0625 -73.664062 1.6875 -75.40625 2.9375 -76.8125 C 4.1875 -78.226562 5.800781 -79.296875 7.78125 -80.015625 C 9.757812 -80.742188 11.828125 -81.109375 13.984375 -81.109375 C 16.097656 -81.109375 18.144531 -80.742188 20.125 -80.015625 C 22.101562 -79.296875 23.726562 -78.226562 25 -76.8125 C 26.28125 -75.40625 26.921875 -73.664062 26.921875 -71.59375 C 26.921875 -69.46875 26.28125 -67.703125 25 -66.296875 C 23.726562 -64.890625 22.101562 -63.832031 20.125 -63.125 C 18.144531 -62.414062 16.097656 -62.0625 13.984375 -62.0625 Z M 3.40625 29.390625 C 2.070312 29.390625 0.828125 29.316406 -0.328125 29.171875 C -1.484375 29.035156 -2.585938 28.832031 -3.640625 28.5625 C -4.972656 28.207031 -5.640625 27.347656 -5.640625 25.984375 L -5.640625 17.15625 C -5.640625 16.375 -5.414062 15.796875 -4.96875 15.421875 C -4.519531 15.054688 -3.882812 14.929688 -3.0625 15.046875 C -2.351562 15.160156 -1.800781 15.226562 -1.40625 15.25 C -1.019531 15.269531 -0.707031 15.28125 -0.46875 15.28125 C 1.40625 15.28125 2.851562 14.671875 3.875 13.453125 C 4.894531 12.242188 5.40625 10.460938 5.40625 8.109375 L 5.40625 -53.015625 C 11.125 -51.835938 15.492188 -49.335938 18.515625 -45.515625 C 21.535156 -41.703125 23.046875 -36.757812 23.046875 -30.6875 L 23.046875 8.109375 C 23.046875 22.296875 16.5 29.390625 3.40625 29.390625 Z M 3.40625 29.390625 "/></g></g></g><g fill="#1e7fd0" fill-opacity="1"><g transform="translate(55.109355, 132.239853)"><g><path d="M 50.015625 -43.4375 C 52.878906 -49.113281 57.757812 -52.304688 64.65625 -53.015625 L 64.65625 1.171875 C 57.757812 0.472656 52.878906 -2.738281 50.015625 -8.46875 C 47.742188 -5.25 44.820312 -2.71875 41.25 -0.875 C 37.6875 0.957031 33.691406 1.875 29.265625 1.875 C 25.460938 1.875 21.972656 1.203125 18.796875 -0.140625 C 15.628906 -1.492188 12.898438 -3.40625 10.609375 -5.875 C 8.316406 -8.34375 6.539062 -11.28125 5.28125 -14.6875 C 4.03125 -18.101562 3.40625 -21.867188 3.40625 -25.984375 C 3.40625 -30.054688 4.03125 -33.785156 5.28125 -37.171875 C 6.539062 -40.566406 8.316406 -43.492188 10.609375 -45.953125 C 12.898438 -48.421875 15.628906 -50.332031 18.796875 -51.6875 C 21.972656 -53.039062 25.460938 -53.71875 29.265625 -53.71875 C 33.691406 -53.71875 37.6875 -52.804688 41.25 -50.984375 C 44.820312 -49.160156 47.742188 -46.644531 50.015625 -43.4375 Z M 34.671875 -12.21875 C 37.066406 -12.21875 39.191406 -12.796875 41.046875 -13.953125 C 42.910156 -15.109375 44.367188 -16.710938 45.421875 -18.765625 C 46.484375 -20.828125 47.015625 -23.191406 47.015625 -25.859375 C 47.015625 -28.523438 46.484375 -30.882812 45.421875 -32.9375 C 44.367188 -35 42.910156 -36.609375 41.046875 -37.765625 C 39.191406 -38.921875 37.066406 -39.5 34.671875 -39.5 C 32.285156 -39.5 30.160156 -38.921875 28.296875 -37.765625 C 26.429688 -36.609375 24.96875 -35 23.90625 -32.9375 C 22.851562 -30.882812 22.328125 -28.523438 22.328125 -25.859375 C 22.328125 -23.191406 22.851562 -20.828125 23.90625 -18.765625 C 24.96875 -16.710938 26.429688 -15.109375 28.296875 -13.953125 C 30.160156 -12.796875 32.285156 -12.21875 34.671875 -12.21875 Z M 34.671875 -12.21875 "/></g></g></g><g fill="#1e7fd0" fill-opacity="1"><g transform="translate(125.51464, 132.239853)"><g><path d="M 49.546875 -44.015625 C 52.410156 -50.015625 57.445312 -53.015625 64.65625 -53.015625 L 64.65625 4.578125 C 64.65625 10.265625 63.378906 14.9375 60.828125 18.59375 C 58.285156 22.257812 54.757812 24.972656 50.25 26.734375 C 45.75 28.503906 40.554688 29.390625 34.671875 29.390625 C 31.066406 29.390625 27.566406 29.023438 24.171875 28.296875 C 20.785156 27.578125 17.710938 26.429688 14.953125 24.859375 C 12.191406 23.296875 9.898438 21.207031 8.078125 18.59375 C 6.253906 15.988281 5.085938 12.804688 4.578125 9.046875 C 4.460938 8.265625 4.617188 7.65625 5.046875 7.21875 C 5.484375 6.789062 6.070312 6.578125 6.8125 6.578125 L 19.75 6.578125 C 21.125 6.578125 21.984375 7.320312 22.328125 8.8125 C 22.921875 11.320312 24.285156 13.203125 26.421875 14.453125 C 28.554688 15.710938 31.382812 16.34375 34.90625 16.34375 C 38.789062 16.34375 41.78125 15.398438 43.875 13.515625 C 45.96875 11.640625 47.015625 8.625 47.015625 4.46875 L 47.015625 -4.9375 C 44.785156 -2.78125 42.171875 -1.109375 39.171875 0.078125 C 36.171875 1.273438 32.867188 1.875 29.265625 1.875 C 25.460938 1.875 21.972656 1.203125 18.796875 -0.140625 C 15.628906 -1.492188 12.898438 -3.40625 10.609375 -5.875 C 8.316406 -8.34375 6.539062 -11.28125 5.28125 -14.6875 C 4.03125 -18.101562 3.40625 -21.867188 3.40625 -25.984375 C 3.40625 -30.054688 4.03125 -33.785156 5.28125 -37.171875 C 6.539062 -40.566406 8.316406 -43.492188 10.609375 -45.953125 C 12.898438 -48.421875 15.628906 -50.332031 18.796875 -51.6875 C 21.972656 -53.039062 25.460938 -53.71875 29.265625 -53.71875 C 33.578125 -53.71875 37.46875 -52.863281 40.9375 -51.15625 C 44.40625 -49.457031 47.273438 -47.078125 49.546875 -44.015625 Z M 34.671875 -12.21875 C 37.066406 -12.21875 39.191406 -12.796875 41.046875 -13.953125 C 42.910156 -15.109375 44.367188 -16.710938 45.421875 -18.765625 C 46.484375 -20.828125 47.015625 -23.191406 47.015625 -25.859375 C 47.015625 -28.523438 46.484375 -30.882812 45.421875 -32.9375 C 44.367188 -35 42.910156 -36.609375 41.046875 -37.765625 C 39.191406 -38.921875 37.066406 -39.5 34.671875 -39.5 C 32.285156 -39.5 30.160156 -38.921875 28.296875 -37.765625 C 26.429688 -36.609375 24.96875 -35 23.90625 -32.9375 C 22.851562 -30.882812 22.328125 -28.523438 22.328125 -25.859375 C 22.328125 -23.191406 22.851562 -20.828125 23.90625 -18.765625 C 24.96875 -16.710938 26.429688 -15.109375 28.296875 -13.953125 C 30.160156 -12.796875 32.285156 -12.21875 34.671875 -12.21875 Z M 34.671875 -12.21875 "/></g></g></g><g fill="#1e7fd0" fill-opacity="1"><g transform="translate(195.919926, 132.239853)"><g><path d="M 50.015625 -43.4375 C 52.878906 -49.113281 57.757812 -52.304688 64.65625 -53.015625 L 64.65625 1.171875 C 57.757812 0.472656 52.878906 -2.738281 50.015625 -8.46875 C 47.742188 -5.25 44.820312 -2.71875 41.25 -0.875 C 37.6875 0.957031 33.691406 1.875 29.265625 1.875 C 25.460938 1.875 21.972656 1.203125 18.796875 -0.140625 C 15.628906 -1.492188 12.898438 -3.40625 10.609375 -5.875 C 8.316406 -8.34375 6.539062 -11.28125 5.28125 -14.6875 C 4.03125 -18.101562 3.40625 -21.867188 3.40625 -25.984375 C 3.40625 -30.054688 4.03125 -33.785156 5.28125 -37.171875 C 6.539062 -40.566406 8.316406 -43.492188 10.609375 -45.953125 C 12.898438 -48.421875 15.628906 -50.332031 18.796875 -51.6875 C 21.972656 -53.039062 25.460938 -53.71875 29.265625 -53.71875 C 33.691406 -53.71875 37.6875 -52.804688 41.25 -50.984375 C 44.820312 -49.160156 47.742188 -46.644531 50.015625 -43.4375 Z M 34.671875 -12.21875 C 37.066406 -12.21875 39.191406 -12.796875 41.046875 -13.953125 C 42.910156 -15.109375 44.367188 -16.710938 45.421875 -18.765625 C 46.484375 -20.828125 47.015625 -23.191406 47.015625 -25.859375 C 47.015625 -28.523438 46.484375 -30.882812 45.421875 -32.9375 C 44.367188 -35 42.910156 -36.609375 41.046875 -37.765625 C 39.191406 -38.921875 37.066406 -39.5 34.671875 -39.5 C 32.285156 -39.5 30.160156 -38.921875 28.296875 -37.765625 C 26.429688 -36.609375 24.96875 -35 23.90625 -32.9375 C 22.851562 -30.882812 22.328125 -28.523438 22.328125 -25.859375 C 22.328125 -23.191406 22.851562 -20.828125 23.90625 -18.765625 C 24.96875 -16.710938 26.429688 -15.109375 28.296875 -13.953125 C 30.160156 -12.796875 32.285156 -12.21875 34.671875 -12.21875 Z M 34.671875 -12.21875 "/></g></g></g><g fill="#3cc6f7" fill-opacity="1"><g transform="translate(266.338807, 132.239853)"><g><path d="M 67.125 -21.859375 L 70.640625 -33.625 C 72.640625 -40.320312 75.65625 -45.226562 79.6875 -48.34375 C 83.726562 -51.457031 88.828125 -53.015625 94.984375 -53.015625 L 78.515625 -1.875 C 78.285156 -1.175781 77.960938 -0.6875 77.546875 -0.40625 C 77.140625 -0.132812 76.601562 0 75.9375 0 L 63.359375 0 C 62.734375 0 62.179688 -0.132812 61.703125 -0.40625 C 61.234375 -0.6875 60.84375 -1.140625 60.53125 -1.765625 L 47.71875 -31.03125 L 35.03125 -1.765625 C 34.5625 -0.585938 33.617188 0 32.203125 0 L 19.515625 0 C 18.140625 0 17.273438 -0.625 16.921875 -1.875 L 1.640625 -49.140625 C 1.410156 -49.960938 1.476562 -50.617188 1.84375 -51.109375 C 2.21875 -51.597656 2.816406 -51.84375 3.640625 -51.84375 L 16.921875 -51.84375 C 18.296875 -51.84375 19.160156 -51.175781 19.515625 -49.84375 L 28.265625 -21.8125 L 34.09375 -35.265625 C 36.75 -41.453125 39.65625 -45.957031 42.8125 -48.78125 C 45.96875 -51.601562 49.484375 -53.015625 53.359375 -53.015625 Z M 67.125 -21.859375 "/></g></g></g><g fill="#3cc6f7" fill-opacity="1"><g transform="translate(362.484922, 132.239853)"><g><path d="M 50.015625 -43.4375 C 52.878906 -49.113281 57.757812 -52.304688 64.65625 -53.015625 L 64.65625 1.171875 C 57.757812 0.472656 52.878906 -2.738281 50.015625 -8.46875 C 47.742188 -5.25 44.820312 -2.71875 41.25 -0.875 C 37.6875 0.957031 33.691406 1.875 29.265625 1.875 C 25.460938 1.875 21.972656 1.203125 18.796875 -0.140625 C 15.628906 -1.492188 12.898438 -3.40625 10.609375 -5.875 C 8.316406 -8.34375 6.539062 -11.28125 5.28125 -14.6875 C 4.03125 -18.101562 3.40625 -21.867188 3.40625 -25.984375 C 3.40625 -30.054688 4.03125 -33.785156 5.28125 -37.171875 C 6.539062 -40.566406 8.316406 -43.492188 10.609375 -45.953125 C 12.898438 -48.421875 15.628906 -50.332031 18.796875 -51.6875 C 21.972656 -53.039062 25.460938 -53.71875 29.265625 -53.71875 C 33.691406 -53.71875 37.6875 -52.804688 41.25 -50.984375 C 44.820312 -49.160156 47.742188 -46.644531 50.015625 -43.4375 Z M 34.671875 -12.21875 C 37.066406 -12.21875 39.191406 -12.796875 41.046875 -13.953125 C 42.910156 -15.109375 44.367188 -16.710938 45.421875 -18.765625 C 46.484375 -20.828125 47.015625 -23.191406 47.015625 -25.859375 C 47.015625 -28.523438 46.484375 -30.882812 45.421875 -32.9375 C 44.367188 -35 42.910156 -36.609375 41.046875 -37.765625 C 39.191406 -38.921875 37.066406 -39.5 34.671875 -39.5 C 32.285156 -39.5 30.160156 -38.921875 28.296875 -37.765625 C 26.429688 -36.609375 24.96875 -35 23.90625 -32.9375 C 22.851562 -30.882812 22.328125 -28.523438 22.328125 -25.859375 C 22.328125 -23.191406 22.851562 -20.828125 23.90625 -18.765625 C 24.96875 -16.710938 26.429688 -15.109375 28.296875 -13.953125 C 30.160156 -12.796875 32.285156 -12.21875 34.671875 -12.21875 Z M 34.671875 -12.21875 "/></g></g></g><g fill="#3cc6f7" fill-opacity="1"><g transform="translate(432.890207, 132.239853)"><g><path d="M 31.265625 1.875 C 26.285156 1.875 21.804688 1.21875 17.828125 -0.09375 C 13.859375 -1.40625 10.585938 -3.429688 8.015625 -6.171875 C 5.453125 -8.910156 3.800781 -12.457031 3.0625 -16.8125 C 2.9375 -17.59375 3.085938 -18.195312 3.515625 -18.625 C 3.953125 -19.0625 4.546875 -19.28125 5.296875 -19.28125 L 18.109375 -19.28125 C 18.804688 -19.28125 19.347656 -19.082031 19.734375 -18.6875 C 20.128906 -18.300781 20.410156 -17.753906 20.578125 -17.046875 C 20.921875 -15.671875 21.535156 -14.539062 22.421875 -13.65625 C 23.304688 -12.78125 24.304688 -12.097656 25.421875 -11.609375 C 26.535156 -11.117188 27.648438 -10.785156 28.765625 -10.609375 C 29.878906 -10.429688 30.832031 -10.34375 31.625 -10.34375 C 34.40625 -10.34375 36.453125 -10.820312 37.765625 -11.78125 C 39.078125 -12.738281 39.734375 -13.945312 39.734375 -15.40625 C 39.734375 -16.613281 39.242188 -17.570312 38.265625 -18.28125 C 37.285156 -18.988281 35.972656 -19.535156 34.328125 -19.921875 C 32.679688 -20.316406 30.828125 -20.660156 28.765625 -20.953125 C 26.710938 -21.242188 24.585938 -21.582031 22.390625 -21.96875 C 20.191406 -22.363281 18.066406 -22.882812 16.015625 -23.53125 C 13.960938 -24.1875 12.113281 -25.0625 10.46875 -26.15625 C 8.820312 -27.25 7.503906 -28.675781 6.515625 -30.4375 C 5.535156 -32.207031 5.046875 -34.40625 5.046875 -37.03125 C 5.046875 -40.351562 5.988281 -43.269531 7.875 -45.78125 C 9.757812 -48.289062 12.519531 -50.238281 16.15625 -51.625 C 19.800781 -53.019531 24.289062 -53.71875 29.625 -53.71875 C 36.519531 -53.71875 42.148438 -52.472656 46.515625 -49.984375 C 50.890625 -47.492188 53.722656 -43.722656 55.015625 -38.671875 C 55.210938 -37.847656 55.113281 -37.210938 54.71875 -36.765625 C 54.320312 -36.316406 53.710938 -36.09375 52.890625 -36.09375 L 40.3125 -36.09375 C 39.101562 -36.09375 38.203125 -36.753906 37.609375 -38.078125 C 36.910156 -39.609375 35.882812 -40.773438 34.53125 -41.578125 C 33.175781 -42.378906 31.226562 -42.78125 28.6875 -42.78125 C 26.644531 -42.78125 25.148438 -42.4375 24.203125 -41.75 C 23.265625 -41.070312 22.796875 -40.28125 22.796875 -39.375 C 22.796875 -38.238281 23.285156 -37.335938 24.265625 -36.671875 C 25.253906 -36.003906 26.570312 -35.460938 28.21875 -35.046875 C 29.863281 -34.640625 31.710938 -34.28125 33.765625 -33.96875 C 35.816406 -33.65625 37.941406 -33.28125 40.140625 -32.84375 C 42.335938 -32.414062 44.460938 -31.847656 46.515625 -31.140625 C 48.578125 -30.441406 50.429688 -29.492188 52.078125 -28.296875 C 53.722656 -27.097656 55.035156 -25.585938 56.015625 -23.765625 C 56.992188 -21.953125 57.484375 -19.710938 57.484375 -17.046875 C 57.484375 -13.046875 56.441406 -9.632812 54.359375 -6.8125 C 52.285156 -4 49.296875 -1.847656 45.390625 -0.359375 C 41.492188 1.128906 36.785156 1.875 31.265625 1.875 Z M 31.265625 1.875 "/></g></g></g><g fill="#3cc6f7" fill-opacity="1"><g transform="translate(493.657375, 132.239853)"><g><path d="M 28.921875 -51.84375 L 36.5625 -51.84375 C 38.125 -51.84375 38.90625 -51.054688 38.90625 -49.484375 L 38.90625 -40.546875 C 38.90625 -38.984375 38.125 -38.203125 36.5625 -38.203125 L 28.921875 -38.203125 L 28.921875 -2.34375 C 28.921875 -0.78125 28.132812 0 26.5625 0 L 13.640625 0 C 12.066406 0 11.28125 -0.78125 11.28125 -2.34375 L 11.28125 -38.203125 L 3.765625 -38.203125 C 2.191406 -38.203125 1.40625 -38.984375 1.40625 -40.546875 L 1.40625 -49.484375 C 1.40625 -51.054688 2.191406 -51.84375 3.765625 -51.84375 L 11.28125 -51.84375 C 11.28125 -57.914062 12.796875 -62.859375 15.828125 -66.671875 C 18.867188 -70.492188 23.234375 -72.992188 28.921875 -74.171875 Z M 28.921875 -51.84375 "/></g></g></g><g fill="#3cc6f7" fill-opacity="1"><g transform="translate(533.972923, 132.239853)"><g><path d="M 42.546875 -51.84375 L 55.484375 -51.84375 C 57.046875 -51.84375 57.828125 -51.054688 57.828125 -49.484375 L 57.828125 1.171875 C 50.929688 0.472656 46.015625 -2.773438 43.078125 -8.578125 C 39.316406 -1.609375 33.300781 1.875 25.03125 1.875 C 18.53125 1.875 13.535156 -0.148438 10.046875 -4.203125 C 6.554688 -8.253906 4.8125 -14.101562 4.8125 -21.75 L 4.8125 -49.484375 C 4.8125 -51.054688 5.597656 -51.84375 7.171875 -51.84375 L 20.09375 -51.84375 C 21.664062 -51.84375 22.453125 -51.054688 22.453125 -49.484375 L 22.453125 -21.75 C 22.453125 -18.769531 23.117188 -16.4375 24.453125 -14.75 C 25.785156 -13.0625 27.625 -12.21875 29.96875 -12.21875 C 31.925781 -12.21875 33.679688 -12.753906 35.234375 -13.828125 C 36.785156 -14.910156 38 -16.398438 38.875 -18.296875 C 39.757812 -20.203125 40.203125 -22.367188 40.203125 -24.796875 L 40.203125 -49.484375 C 40.203125 -51.054688 40.984375 -51.84375 42.546875 -51.84375 Z M 42.546875 -51.84375 "/></g></g></g><g fill="#3cc6f7" fill-opacity="1"><g transform="translate(597.443466, 132.239853)"><g><path d="M 15.640625 1.171875 C 13.484375 1.171875 11.414062 0.816406 9.4375 0.109375 C 7.457031 -0.585938 5.835938 -1.640625 4.578125 -3.046875 C 3.328125 -4.460938 2.703125 -6.226562 2.703125 -8.34375 C 2.703125 -10.414062 3.328125 -12.15625 4.578125 -13.5625 C 5.835938 -14.976562 7.457031 -16.046875 9.4375 -16.765625 C 11.414062 -17.492188 13.484375 -17.859375 15.640625 -17.859375 C 17.753906 -17.859375 19.800781 -17.492188 21.78125 -16.765625 C 23.757812 -16.046875 25.382812 -14.976562 26.65625 -13.5625 C 27.925781 -12.15625 28.5625 -10.414062 28.5625 -8.34375 C 28.5625 -6.226562 27.925781 -4.460938 26.65625 -3.046875 C 25.382812 -1.640625 23.757812 -0.585938 21.78125 0.109375 C 19.800781 0.816406 17.753906 1.171875 15.640625 1.171875 Z M 15.640625 1.171875 "/></g></g></g><g fill="#3cc6f7" fill-opacity="1"><g transform="translate(628.826129, 132.239853)"><g><path d="M 13.640625 -62.0625 C 11.484375 -62.0625 9.414062 -62.414062 7.4375 -63.125 C 5.457031 -63.832031 3.835938 -64.890625 2.578125 -66.296875 C 1.328125 -67.703125 0.703125 -69.46875 0.703125 -71.59375 C 0.703125 -73.664062 1.328125 -75.40625 2.578125 -76.8125 C 3.835938 -78.226562 5.457031 -79.296875 7.4375 -80.015625 C 9.414062 -80.742188 11.484375 -81.109375 13.640625 -81.109375 C 15.753906 -81.109375 17.800781 -80.742188 19.78125 -80.015625 C 21.757812 -79.296875 23.382812 -78.226562 24.65625 -76.8125 C 25.925781 -75.40625 26.5625 -73.664062 26.5625 -71.59375 C 26.5625 -69.46875 25.925781 -67.703125 24.65625 -66.296875 C 23.382812 -64.890625 21.757812 -63.832031 19.78125 -63.125 C 17.800781 -62.414062 15.753906 -62.0625 13.640625 -62.0625 Z M 20.921875 0 L 8 0 C 6.425781 0 5.640625 -0.78125 5.640625 -2.34375 L 5.640625 -53.015625 C 11.359375 -51.835938 15.726562 -49.335938 18.75 -45.515625 C 21.769531 -41.703125 23.28125 -36.757812 23.28125 -30.6875 L 23.28125 -2.34375 C 23.28125 -0.78125 22.492188 0 20.921875 0 Z M 20.921875 0 "/></g></g></g><g fill="#3cc6f7" fill-opacity="1"><g transform="translate(657.035267, 132.239853)"><g><path d="M 32.90625 1.875 C 28.289062 1.875 24.148438 1.203125 20.484375 -0.140625 C 16.816406 -1.492188 13.695312 -3.414062 11.125 -5.90625 C 8.5625 -8.394531 6.613281 -11.332031 5.28125 -14.71875 C 3.957031 -18.113281 3.296875 -21.828125 3.296875 -25.859375 C 3.296875 -29.929688 3.96875 -33.660156 5.3125 -37.046875 C 6.664062 -40.441406 8.625 -43.382812 11.1875 -45.875 C 13.757812 -48.363281 16.867188 -50.289062 20.515625 -51.65625 C 24.160156 -53.03125 28.289062 -53.71875 32.90625 -53.71875 C 37.5 -53.71875 41.613281 -53.03125 45.25 -51.65625 C 48.894531 -50.289062 51.988281 -48.363281 54.53125 -45.875 C 57.082031 -43.382812 59.035156 -40.441406 60.390625 -37.046875 C 61.742188 -33.660156 62.421875 -29.929688 62.421875 -25.859375 C 62.421875 -20.410156 61.242188 -15.597656 58.890625 -11.421875 C 56.535156 -7.253906 53.15625 -3.992188 48.75 -1.640625 C 44.34375 0.703125 39.0625 1.875 32.90625 1.875 Z M 32.90625 -11.875 C 35.5 -11.875 37.6875 -12.476562 39.46875 -13.6875 C 41.25 -14.90625 42.597656 -16.5625 43.515625 -18.65625 C 44.441406 -20.757812 44.90625 -23.125 44.90625 -25.75 C 44.90625 -28.40625 44.441406 -30.8125 43.515625 -32.96875 C 42.597656 -35.125 41.25 -36.828125 39.46875 -38.078125 C 37.6875 -39.335938 35.5 -39.96875 32.90625 -39.96875 C 30.320312 -39.96875 28.128906 -39.328125 26.328125 -38.046875 C 24.523438 -36.773438 23.15625 -35.0625 22.21875 -32.90625 C 21.28125 -30.757812 20.8125 -28.375 20.8125 -25.75 C 20.8125 -23.15625 21.269531 -20.8125 22.1875 -18.71875 C 23.101562 -16.625 24.460938 -14.957031 26.265625 -13.71875 C 28.066406 -12.488281 30.28125 -11.875 32.90625 -11.875 Z M 32.90625 -11.875 "/></g></g></g></svg>